<mxfile host="app.diagrams.net" agent="Mozilla/5.0 (Windows NT 10.0; Win64; x64) AppleWebKit/537.36 (KHTML, like Gecko) Chrome/128.0.0.0 Safari/537.36 Edg/128.0.0.0" version="24.7.10">
  <diagram id="R2lEEEUBdFMjLlhIrx00" name="Page-1">
    <mxGraphModel dx="2236" dy="783" grid="1" gridSize="10" guides="1" tooltips="1" connect="1" arrows="1" fold="1" page="1" pageScale="1" pageWidth="850" pageHeight="1100" math="0" shadow="0" extFonts="Permanent Marker^https://fonts.googleapis.com/css?family=Permanent+Marker">
      <root>
        <mxCell id="0" />
        <mxCell id="1" parent="0" />
        <mxCell id="JEXMNy8tIZtHjNzWdBiv-75" style="edgeStyle=orthogonalEdgeStyle;rounded=0;orthogonalLoop=1;jettySize=auto;html=1;" parent="1" source="JEXMNy8tIZtHjNzWdBiv-1" target="JEXMNy8tIZtHjNzWdBiv-65" edge="1">
          <mxGeometry relative="1" as="geometry" />
        </mxCell>
        <mxCell id="JEXMNy8tIZtHjNzWdBiv-79" value="&lt;font style=&quot;font-size: 14px;&quot;&gt;Entry once the job started&lt;/font&gt;" style="edgeLabel;html=1;align=center;verticalAlign=middle;resizable=0;points=[];" parent="JEXMNy8tIZtHjNzWdBiv-75" vertex="1" connectable="0">
          <mxGeometry x="-0.2041" y="3" relative="1" as="geometry">
            <mxPoint as="offset" />
          </mxGeometry>
        </mxCell>
        <mxCell id="JEXMNy8tIZtHjNzWdBiv-1" value="" style="shape=image;verticalLabelPosition=bottom;labelBackgroundColor=default;verticalAlign=top;aspect=fixed;imageAspect=0;image=https://miro.medium.com/v2/resize:fit:908/1*CjaH-vqt7LvnubwmRKmDTQ.png;fontColor=#3D3229;" parent="1" vertex="1">
          <mxGeometry x="-210" y="440" width="89.6" height="90" as="geometry" />
        </mxCell>
        <mxCell id="JEXMNy8tIZtHjNzWdBiv-89" style="edgeStyle=orthogonalEdgeStyle;rounded=0;orthogonalLoop=1;jettySize=auto;html=1;exitX=0.5;exitY=1;exitDx=0;exitDy=0;" parent="1" source="JEXMNy8tIZtHjNzWdBiv-2" target="JEXMNy8tIZtHjNzWdBiv-88" edge="1">
          <mxGeometry relative="1" as="geometry">
            <mxPoint x="-170" y="596" as="sourcePoint" />
            <mxPoint x="-345" y="580" as="targetPoint" />
          </mxGeometry>
        </mxCell>
        <mxCell id="JEXMNy8tIZtHjNzWdBiv-2" value="AWS ECR JOB" style="text;html=1;align=center;verticalAlign=middle;whiteSpace=wrap;rounded=0;" parent="1" vertex="1">
          <mxGeometry x="-210" y="530" width="90" height="30" as="geometry" />
        </mxCell>
        <mxCell id="JEXMNy8tIZtHjNzWdBiv-187" style="edgeStyle=orthogonalEdgeStyle;rounded=0;orthogonalLoop=1;jettySize=auto;html=1;" parent="1" source="JEXMNy8tIZtHjNzWdBiv-5" target="JEXMNy8tIZtHjNzWdBiv-138" edge="1">
          <mxGeometry relative="1" as="geometry" />
        </mxCell>
        <mxCell id="JEXMNy8tIZtHjNzWdBiv-188" style="edgeStyle=orthogonalEdgeStyle;rounded=0;orthogonalLoop=1;jettySize=auto;html=1;" parent="1" source="JEXMNy8tIZtHjNzWdBiv-5" target="JEXMNy8tIZtHjNzWdBiv-112" edge="1">
          <mxGeometry relative="1" as="geometry" />
        </mxCell>
        <mxCell id="JEXMNy8tIZtHjNzWdBiv-189" style="edgeStyle=orthogonalEdgeStyle;rounded=0;orthogonalLoop=1;jettySize=auto;html=1;" parent="1" source="JEXMNy8tIZtHjNzWdBiv-5" target="JEXMNy8tIZtHjNzWdBiv-151" edge="1">
          <mxGeometry relative="1" as="geometry">
            <Array as="points">
              <mxPoint x="950" y="485" />
              <mxPoint x="950" y="485" />
            </Array>
          </mxGeometry>
        </mxCell>
        <mxCell id="JEXMNy8tIZtHjNzWdBiv-192" style="edgeStyle=orthogonalEdgeStyle;rounded=0;orthogonalLoop=1;jettySize=auto;html=1;entryX=0;entryY=0.5;entryDx=0;entryDy=0;" parent="1" source="JEXMNy8tIZtHjNzWdBiv-5" target="JEXMNy8tIZtHjNzWdBiv-128" edge="1">
          <mxGeometry relative="1" as="geometry" />
        </mxCell>
        <mxCell id="JEXMNy8tIZtHjNzWdBiv-5" value="" style="shape=image;verticalLabelPosition=bottom;labelBackgroundColor=default;verticalAlign=top;aspect=fixed;imageAspect=0;image=data:image/png,iVBORw0KGgoAAAANSUhEUgAAAJMAAACLCAYAAABlYKvjAAAAAXNSR0IArs4c6QAAAARnQU1BAACxjwv8YQUAAAAJcEhZcwAADsMAAA7DAcdvqGQAABFKSURBVHhe7ZwFmJRVF8fP7tLd3bWsS7mEdC0gsYR0SEoIJiDyAaKAAiJiAGJgUBJLSSwpqJTSEhKLSsMSUgLS+93/mXtn3hlmcJadXRif83ueC/eNnXnj3HNP3SFB8BUB+n9B8JpTuXM3pNjYyaobSwEBPXKdPLkc+wPxjyDEkbeVEOVSLTf3NSJMQpyJjY29q7tOfREmIe7Exg6JJTqi2xC9VxAEQRAEQRAEQRAEQRAEQRAEQRAEQRAEQRAEQRAEQRAEQRAEQRAEQRAEQRAEQRAEQRAEQRAEQRAEQRAEQRAEQRAEQRAEQRAEQRAEQRAEQRAEQRAEQRAEQRAEQRAEQRAEQRAEQRAEQRAEQRAEQRAEQRAEQRAEQRAEQRAEQRAEQRAEQRAEQRAEISEJiFXoviDEi0D9vyDEGxEmwWeIMAk+Q4RJ8BkiTILPEGESfIYIk+AzRJgEn3Ff0DLvM1/r3qPn+MJuuufg21UH6X+fbtRbRFPfqEe1y+bRWzY27jlNbd9crreIIt9uQJVK5NRbD2bzbzHU8o1lesuZHk1K0JtdK+gtwRW/00zVSufSPRvbDpzRPQfb9jv2JUsaROVDsustISHxqJkGtA97JC9hqxKEsTN3cN+dZgIVe0bSyXNXuV+5ZE6aM6IB9w3PjlhJP+08yf0aT+amGW8+zX1vOKE+N3LNIb1FNO/H3+n4mb+537NpCRraRTSTJzwK0+SB4VS/Yn7uJyYrNx+l7u+u4b4nYXp90gaatTqa+8mV5ome04kCAwJ4+566ndAOM+jqP7d5+43O5alXs5LcN9y6fZf+PHWFbt+9R7mzpKZM6VLoI/fT7q0VtGH3Ke77eprDtW4/eJbu3LlHAer6yxXPRkmC/NeM9csrr1Yqt+4R3VSC8dvhC3qL6ODRi3ZBAlVL287FkInadIQ6DF9JRdtMo7qvLqSG/RdR6c4zqdZLC2j11mN8nrd8FPkrDzy0hq8t1nttbFI2mzmGBuG1gmuZrzRe9T7zqPmgKGo9dDm1UnZapV6RNGPlARYyf8Qvhal6GWe7abvFbtp24KzuEaVLnYxCC2bi/tDJP9PzY9fSul9P3veyfj9xiXoobbj3z7/0noSl13tr6dWP19HRGNv0aYj56zoN+mwTdXlntd7jX/ilMKVPk5yeKGATEmAVINhcBthLhrBg2xSSJ1saGt+3Bs0aXp9e71CWsmRIycfv3oulD2bv5H5Csnb7CVr+yxHup0mVlCb2q0n7vn2W7brsmVLx/h92nKBVW+KmKR8H/HaCrmrx6rZbhcmipazTYfMahWnBqEa08oNm9Ez1wlS1VC56qWVperV1GX2GsyAmFJjGDK+1C6Om1QpR2lTJWPCt9ti0Fft1z394rIQJtsXHyhbxBgiDAR7YX1du0AXVTpy1eXnAdTp8slhWfnHnLv1Du34/Tz/vPa2+854+SnTp6k22wRISGNyGe0ob4hpMs15LYgi2r3lshOnGrbvUWdkKe7y0W6qUzOnk+UA7bdnneAH5sqel3FnT6C2iv6/fon4T1lOJjjMorOssihiwmA3fEd9s1mckDhf/vqF7pL57C1+DaX3Hr9NHiK7fuENXrt3SW/6BR2HSnnaigAfXRj1MuODefi+CkWWVK2349dA5p1HvGtx8YdyPNHftIX5BJQtnob5tnuTWOryoPiNxSJU8qe4RtaxVxH4d7pq/hQke+dVevX6b0xc7os9SUGAA9WxSQh/5d6pZprqd0ef4MwxWm+r85Rts1BpmK+O7X9snubWpXUzvjRtJghxSf80SigC37jhPlYghGQrnSa97RBVCctivw7RezUrQy61Kcz9ViiT6TP/AozCdV3ZFQnPx75tKkKJozx/neXuC8mziEnW3CgxsDAiUwSpoZy9e1z1igU2d0qEdjpy+ontxI3+OdLpHdPj0ZbbBAKbT6SscRjawatvaYY484sdzf6WDxy7qLds9NH59CfVX07E/4lGYPp67i7VGQgFt0XTgEg44Qp1PeaMuNa5SUB/1jtJFsthHLwzn23dsBmzJQpk5fGAolCs9JU1iu1WEAAZ8soHDALBZPl24m110Q5HWU+n7bcf1lmfKF8/OggkQtoINFv7KQg6C7j/qEBBXnmscSrmypOY+UkJ11N/UfnkBle8+m5oPjqJDxy/Rgp/+UNe1h8/xJzwK0+m/rlHXUav54fuaMxeuUxMlSIeVVoAgfTkonMLL5tVHvQd/W9lNNYBVY4EUyYJoWLen9Bax7fThnJ00efFeev6ZktSuTrA+4j05MqeibhGhestGtNIy8Bb7KXvHExmUkM8f2YiC82XUe4gFCAFLQyk1SBDK8Df+tQQFBuq4F6vprfiD0dhiyDL+H0b0lCF1lLHsiAd5k5uzYnOrY/SWjYjKBaiY5WUZ4O0hjXE05goFKUHs0iCE6lbIR3fu3uOpCdMuaFa9EGszMO+H3+mYTvQid1a9jONawaL1f7I9dur8NcqWMSUHQpEnjFQCa3i1TRl77tCAKPyGXad4aoN2Tpk8CRXOnZ5KKK2Kkhp/M76BR2GqUionbdx9mvuDO5Wn3moExxdoIuSgoJmgLaYNrXdfnVFchUl4fPAo/p3VqK0YmoP7o6dv9cqOeBBQ5bCRjCDNGu59wZrgH3gUpqDAQPpmcF0qmDMdG5i9x66l3dpjiSv7j1ygZoOW8jSSOkVSFiRMGcJ/C4/T3FeD6lA9ZU8gPVG//yK6fPUm1/2s+KAp5cxs80a8AbEflH3AM4TXNFsJErwwT3gzzcHVRxDSHbjGAmoAQLMar0nwDMIy8Grd0aJmEWpbx/s43L9aeciyT1VuO4xl5L7aD1vJEWtvgMGLyDYECa76vHcaPVCQvAWpl19+i3Hblv18hCYt2E01X5xvr7YUPHPp6i23zxHNOB7e4pXLUDY4G03oW4P7qP2B5vi3kAFSI+2GreAXD22xYGRDe21RYvDPzTs0+PNNCRLa+C+RIU0yto1Ns8bc4orX/mfDSgXs5Rrrd53k0llPwFXuOGIVVwGwII1q5NZVf1icnWyidZNa8pSINvaFqnov8chaG0/H4b8O8pRz32lobyH5Hn7Axyn5079dGEUrrwxTCYrug/Nm5CJ7K0s3HaaXPviJYzcoPJunLhDxk8QCc/yYb7fb00H7j17gWJIBZSafzN/N9UJmusaiBAQan9Leq5VrN27TzFXRFKXu67iyH89dus4OCabr9vWCqXXtovfFhLAAYfy8XRyjwnMAEZULcrzJGqw0IM4UuSaaNu+LUZr/MqVJmZTy5UhLjasUoo71i7P3C1b8cpS+Wvob963gGlqphpTOt6sOcAVn94hQp/uG7TpR3ffqLcf4elFVUS4kG3VrFPrAGQPPaNzsHTQf96K0fDk1S73ZrYI9DmfFa81kwHSHCC14Z+oWp5DBwnV/UJ/3f+AHiAjxoncjElWQDCmUfWdA2sawZvtxqtQzkj77bo+T3YeabSSbX5vorG0hSBEDlnCZCioSYPgbdwUvbuCkjZxLMwIDvo7aR9X6zKPZ30c77ccgQ+pk/Fznei2kdur3+47/DkKFtBBqs5BnxPd2GL5Cn0kUc+GaW9sGQo5gLEIvWGiB+4nR+UgER1/56Cd1bCkLEsB1/XnqMisEZCIQ+HUH0lNt31pOXyzay9cEJwzPsMXgKDZfXPEoTK5TiQGG+PSh9dijMyEDuP5z1MjCRWNfnqxpaOHoCJb+xAZxLKSCDLgWgNKTVz5aZ19sULd8PvpiYG0a1LEcawKAe1iy4TD3wYS5u9hGBJimEWTFgs63e1TktAlAkZ7RTEjaDv9qs91OaxNejL3iF5qXsp+DZVwmxIIXsk89OwAtjlU0aMXzO7QXnBhzTTkypXbYNpZkNV4yBoI7+/Drpfs412fAah7YwHCsAEyRHmPWso3pygyl5fA9L7Yo7aS9MEAhvK54DA18rR6CVU26goeMVRm4CHhquCGQX6lnzL1xCR9Y8SY0gGmk8vNz9RZR10ZPcM4LQoTRh1EEkMH45Ys2HCKANho5dSvvR/pm5jDHWjqMNlPED60bNbYJ96GtsMIXjOxZiTo1COE+gJb6Jmo/DegQZk+VoLgNUxvANY3oXpH7AInbUdNs39+kaiH6pH9N7kOg3lPT8ostSjktuYLGMFUQHdR0+m7vKtw3WI8jdtfh6WCqU86R38Q0lDVjSgrrMsv+PBAk/vJ/4bzQAoKHe0b5zLu9K9ttWqyWMaXPmPYxeMz9Nei/yL7oAuaE1T4FcZ7mDEXyZFCjLpwz50aQoIng/j+sIHmL6/j7Rk0RSNxiajEPDgzpVN4eazKpIVArzDm/hnIVkzqD1jA5uoxpHZUHnyzYTeNm7aDpKw/w8nMMwYHP2vJwBut3WBczgHDLEvYfdzpqq2APofbbKkjAmh2Anfog6pTPy4tD8TemYXHC/iMXnZ4HvgeCBPDesLBiwWjPzlGFkOxO94dtg7uwwUMLE8AIf6+PTTphG8FGgq30qMH9QztaF1+esdQ0IUgHDWxa4dZT7bYQMA+qfd1ge5kJErlYKzf4s038OwblnpvNMTdr3Rdqyw0Y9dbvQHmKAVOuKcnFy56gjPU26jNhzxVsOYXPR6zM4DJ53AeyFO7AlG8lq16JY7AOFm9Ikdzhr6F+3ZV4CRNAVQFGxXzl/ptlQ4nNjxNb0NYv29rtEjz742edR44RCoCHb42tuDbzObXC8lDU+015IYI7ECLpMnK1fR1esqSOxxlSIJPbzzYN0wzslU5vr+JpDkYzPgdpJhw3tl58cF0fmNDEW5gAwgOZXdR0YgONiGVDhvHKeLY+TGtqpXnNIk6xFddmNTbRXzymMW38rBXbOZjarEV88OqQxAa5sjgEoM8zJd1+tmnQCrDVjDGO61s/qaX9eItaRXg/eFiZcBVIY44Y4NGagkJf4BNhelzoZYl5oRw3aqNtsSOw2iCuthW0BJZYDfniZ73HBqaJ95WdBKGEPQjDGZ7NpNdqsVdruHPX9rYrlXDEqaYu3+/kIcHQRqDXWtKLmJIB2tL6mdaVKRazJU4Uy5fByRabvvKg7tkYqRwCpJ2gYX2Bx6DlAeXmxie0/rBYa6LjCqYWrEpZv8v2QxMfRu6kCKVF8DIQ2IMRDRsHhXlY54/wAFxlxMpMnXhe5TI/r2wteKuovYIbPHPVQaqppryayqiG3bFk42Geovh8JWQhBWwGbPfGoRy7QawIq4wRb0KyHB7Tqq3HOEc5OyBamQMpqEHFAnb3HGzWhXvQUEiuIzBswLvAtcwcVt9efmwFHiTiTQaYHfBKYTxjgI2evo33T1m2jzVhWHBW5QSctIc9YPtBKyJBHh88hgYeBzyFBmAgV7GEBmAzmeAoPCWkcgym+gEgptP+rRVOWskK7Cq44HB7IRDdRn3Pv03gCQgWXGd4tgaM8udGr3EbtwGI23z+em2u2MQ5+AEN198cAHDh+0/c4DQ1HZrT2R4Nt4YGXMFSc+NNIkDZc8zaB/4wB9JkyG4Aa2gAK55ROWqAUBrHAHYdpmMrQcMUus/AxX5cwHIfd+BFY4RhZKM10UusAUYXbBiodxzDw6yhS23x8tvWLcbnBgYGKpvhNgUGBVDpwlmV1snD8ZZwHauBEY4SjAYV81Na5U5DEyEinjldSn5RvZX2GvdStfs8JKxaQf12imRJ1HcEcPomXZrkVKpwFv6Jog9fqc75MAAtg6nz7MV/6MKVm/z5+LwxSqChUfH7CNCiWEyKe2lVq6jdkcBi1VTKuzLPwNqefiq//XcLcA2wJSs8kZ21LwYi7g3PqU65fDSyV2Vev2fYe/gCCyw+B6YByogN+FsEfXEstGBm1tZW7tNMgvCw/KcMcOHRIsIk+AwRJsFniDAJPkOESfAZIkyCzxBhEnyGCJPgM0SYBJ8hwiT4CKL/Ax2sySp9FQP+AAAAAElFTkSuQmCC;clipPath=inset(59.35% 0% 0% 0%);" parent="1" vertex="1">
          <mxGeometry x="630" y="456.75" width="147" height="56.5" as="geometry" />
        </mxCell>
        <mxCell id="JEXMNy8tIZtHjNzWdBiv-10" value="vrojob" style="shape=table;startSize=30;container=1;collapsible=1;childLayout=tableLayout;fixedRows=1;rowLines=0;fontStyle=1;align=center;resizeLast=1;" parent="1" vertex="1">
          <mxGeometry x="260" y="350" width="260" height="240" as="geometry" />
        </mxCell>
        <mxCell id="JEXMNy8tIZtHjNzWdBiv-11" value="" style="shape=partialRectangle;collapsible=0;dropTarget=0;pointerEvents=0;fillColor=none;points=[[0,0.5],[1,0.5]];portConstraint=eastwest;top=0;left=0;right=0;bottom=1;" parent="JEXMNy8tIZtHjNzWdBiv-10" vertex="1">
          <mxGeometry y="30" width="260" height="30" as="geometry" />
        </mxCell>
        <mxCell id="JEXMNy8tIZtHjNzWdBiv-12" value="PK" style="shape=partialRectangle;overflow=hidden;connectable=0;fillColor=none;top=0;left=0;bottom=0;right=0;fontStyle=1;" parent="JEXMNy8tIZtHjNzWdBiv-11" vertex="1">
          <mxGeometry width="30" height="30" as="geometry">
            <mxRectangle width="30" height="30" as="alternateBounds" />
          </mxGeometry>
        </mxCell>
        <mxCell id="JEXMNy8tIZtHjNzWdBiv-13" value="job_id" style="shape=partialRectangle;overflow=hidden;connectable=0;fillColor=none;top=0;left=0;bottom=0;right=0;align=left;spacingLeft=6;fontStyle=5;" parent="JEXMNy8tIZtHjNzWdBiv-11" vertex="1">
          <mxGeometry x="30" width="230" height="30" as="geometry">
            <mxRectangle width="230" height="30" as="alternateBounds" />
          </mxGeometry>
        </mxCell>
        <mxCell id="JEXMNy8tIZtHjNzWdBiv-14" value="" style="shape=partialRectangle;collapsible=0;dropTarget=0;pointerEvents=0;fillColor=none;points=[[0,0.5],[1,0.5]];portConstraint=eastwest;top=0;left=0;right=0;bottom=0;" parent="JEXMNy8tIZtHjNzWdBiv-10" vertex="1">
          <mxGeometry y="60" width="260" height="30" as="geometry" />
        </mxCell>
        <mxCell id="JEXMNy8tIZtHjNzWdBiv-15" value="" style="shape=partialRectangle;overflow=hidden;connectable=0;fillColor=none;top=0;left=0;bottom=0;right=0;" parent="JEXMNy8tIZtHjNzWdBiv-14" vertex="1">
          <mxGeometry width="30" height="30" as="geometry">
            <mxRectangle width="30" height="30" as="alternateBounds" />
          </mxGeometry>
        </mxCell>
        <mxCell id="JEXMNy8tIZtHjNzWdBiv-16" value="delta_from_date" style="shape=partialRectangle;overflow=hidden;connectable=0;fillColor=none;top=0;left=0;bottom=0;right=0;align=left;spacingLeft=6;" parent="JEXMNy8tIZtHjNzWdBiv-14" vertex="1">
          <mxGeometry x="30" width="230" height="30" as="geometry">
            <mxRectangle width="230" height="30" as="alternateBounds" />
          </mxGeometry>
        </mxCell>
        <mxCell id="JEXMNy8tIZtHjNzWdBiv-17" value="" style="shape=partialRectangle;collapsible=0;dropTarget=0;pointerEvents=0;fillColor=none;points=[[0,0.5],[1,0.5]];portConstraint=eastwest;top=0;left=0;right=0;bottom=0;" parent="JEXMNy8tIZtHjNzWdBiv-10" vertex="1">
          <mxGeometry y="90" width="260" height="30" as="geometry" />
        </mxCell>
        <mxCell id="JEXMNy8tIZtHjNzWdBiv-18" value="" style="shape=partialRectangle;overflow=hidden;connectable=0;fillColor=none;top=0;left=0;bottom=0;right=0;" parent="JEXMNy8tIZtHjNzWdBiv-17" vertex="1">
          <mxGeometry width="30" height="30" as="geometry">
            <mxRectangle width="30" height="30" as="alternateBounds" />
          </mxGeometry>
        </mxCell>
        <mxCell id="JEXMNy8tIZtHjNzWdBiv-19" value="delta_to_date" style="shape=partialRectangle;overflow=hidden;connectable=0;fillColor=none;top=0;left=0;bottom=0;right=0;align=left;spacingLeft=6;" parent="JEXMNy8tIZtHjNzWdBiv-17" vertex="1">
          <mxGeometry x="30" width="230" height="30" as="geometry">
            <mxRectangle width="230" height="30" as="alternateBounds" />
          </mxGeometry>
        </mxCell>
        <mxCell id="JEXMNy8tIZtHjNzWdBiv-65" value="" style="shape=tableRow;horizontal=0;startSize=0;swimlaneHead=0;swimlaneBody=0;fillColor=none;collapsible=0;dropTarget=0;points=[[0,0.5],[1,0.5]];portConstraint=eastwest;top=0;left=0;right=0;bottom=0;" parent="JEXMNy8tIZtHjNzWdBiv-10" vertex="1">
          <mxGeometry y="120" width="260" height="30" as="geometry" />
        </mxCell>
        <mxCell id="JEXMNy8tIZtHjNzWdBiv-66" value="" style="shape=partialRectangle;connectable=0;fillColor=none;top=0;left=0;bottom=0;right=0;editable=1;overflow=hidden;" parent="JEXMNy8tIZtHjNzWdBiv-65" vertex="1">
          <mxGeometry width="30" height="30" as="geometry">
            <mxRectangle width="30" height="30" as="alternateBounds" />
          </mxGeometry>
        </mxCell>
        <mxCell id="JEXMNy8tIZtHjNzWdBiv-67" value="logs" style="shape=partialRectangle;connectable=0;fillColor=none;top=0;left=0;bottom=0;right=0;align=left;spacingLeft=6;overflow=hidden;" parent="JEXMNy8tIZtHjNzWdBiv-65" vertex="1">
          <mxGeometry x="30" width="230" height="30" as="geometry">
            <mxRectangle width="230" height="30" as="alternateBounds" />
          </mxGeometry>
        </mxCell>
        <mxCell id="JEXMNy8tIZtHjNzWdBiv-68" value="" style="shape=tableRow;horizontal=0;startSize=0;swimlaneHead=0;swimlaneBody=0;fillColor=none;collapsible=0;dropTarget=0;points=[[0,0.5],[1,0.5]];portConstraint=eastwest;top=0;left=0;right=0;bottom=0;" parent="JEXMNy8tIZtHjNzWdBiv-10" vertex="1">
          <mxGeometry y="150" width="260" height="30" as="geometry" />
        </mxCell>
        <mxCell id="JEXMNy8tIZtHjNzWdBiv-69" value="" style="shape=partialRectangle;connectable=0;fillColor=none;top=0;left=0;bottom=0;right=0;editable=1;overflow=hidden;" parent="JEXMNy8tIZtHjNzWdBiv-68" vertex="1">
          <mxGeometry width="30" height="30" as="geometry">
            <mxRectangle width="30" height="30" as="alternateBounds" />
          </mxGeometry>
        </mxCell>
        <mxCell id="JEXMNy8tIZtHjNzWdBiv-70" value="state: inprogress, done, error" style="shape=partialRectangle;connectable=0;fillColor=none;top=0;left=0;bottom=0;right=0;align=left;spacingLeft=6;overflow=hidden;" parent="JEXMNy8tIZtHjNzWdBiv-68" vertex="1">
          <mxGeometry x="30" width="230" height="30" as="geometry">
            <mxRectangle width="230" height="30" as="alternateBounds" />
          </mxGeometry>
        </mxCell>
        <mxCell id="JEXMNy8tIZtHjNzWdBiv-49" value="" style="shape=tableRow;horizontal=0;startSize=0;swimlaneHead=0;swimlaneBody=0;fillColor=none;collapsible=0;dropTarget=0;points=[[0,0.5],[1,0.5]];portConstraint=eastwest;top=0;left=0;right=0;bottom=0;" parent="JEXMNy8tIZtHjNzWdBiv-10" vertex="1">
          <mxGeometry y="180" width="260" height="20" as="geometry" />
        </mxCell>
        <mxCell id="JEXMNy8tIZtHjNzWdBiv-50" value="" style="shape=partialRectangle;connectable=0;fillColor=none;top=0;left=0;bottom=0;right=0;editable=1;overflow=hidden;" parent="JEXMNy8tIZtHjNzWdBiv-49" vertex="1">
          <mxGeometry width="30" height="20" as="geometry">
            <mxRectangle width="30" height="20" as="alternateBounds" />
          </mxGeometry>
        </mxCell>
        <mxCell id="JEXMNy8tIZtHjNzWdBiv-51" value="created_at" style="shape=partialRectangle;connectable=0;fillColor=none;top=0;left=0;bottom=0;right=0;align=left;spacingLeft=6;overflow=hidden;" parent="JEXMNy8tIZtHjNzWdBiv-49" vertex="1">
          <mxGeometry x="30" width="230" height="20" as="geometry">
            <mxRectangle width="230" height="20" as="alternateBounds" />
          </mxGeometry>
        </mxCell>
        <mxCell id="JEXMNy8tIZtHjNzWdBiv-56" value="" style="shape=tableRow;horizontal=0;startSize=0;swimlaneHead=0;swimlaneBody=0;fillColor=none;collapsible=0;dropTarget=0;points=[[0,0.5],[1,0.5]];portConstraint=eastwest;top=0;left=0;right=0;bottom=0;" parent="JEXMNy8tIZtHjNzWdBiv-10" vertex="1">
          <mxGeometry y="200" width="260" height="30" as="geometry" />
        </mxCell>
        <mxCell id="JEXMNy8tIZtHjNzWdBiv-57" value="" style="shape=partialRectangle;connectable=0;fillColor=none;top=0;left=0;bottom=0;right=0;editable=1;overflow=hidden;" parent="JEXMNy8tIZtHjNzWdBiv-56" vertex="1">
          <mxGeometry width="30" height="30" as="geometry">
            <mxRectangle width="30" height="30" as="alternateBounds" />
          </mxGeometry>
        </mxCell>
        <mxCell id="JEXMNy8tIZtHjNzWdBiv-58" value="updated_at" style="shape=partialRectangle;connectable=0;fillColor=none;top=0;left=0;bottom=0;right=0;align=left;spacingLeft=6;overflow=hidden;" parent="JEXMNy8tIZtHjNzWdBiv-56" vertex="1">
          <mxGeometry x="30" width="230" height="30" as="geometry">
            <mxRectangle width="230" height="30" as="alternateBounds" />
          </mxGeometry>
        </mxCell>
        <mxCell id="JEXMNy8tIZtHjNzWdBiv-76" style="edgeStyle=orthogonalEdgeStyle;rounded=0;orthogonalLoop=1;jettySize=auto;html=1;" parent="1" source="JEXMNy8tIZtHjNzWdBiv-65" target="JEXMNy8tIZtHjNzWdBiv-5" edge="1">
          <mxGeometry relative="1" as="geometry" />
        </mxCell>
        <mxCell id="JEXMNy8tIZtHjNzWdBiv-77" style="edgeStyle=orthogonalEdgeStyle;rounded=0;orthogonalLoop=1;jettySize=auto;html=1;entryX=1.004;entryY=0.167;entryDx=0;entryDy=0;entryPerimeter=0;" parent="1" source="JEXMNy8tIZtHjNzWdBiv-17" target="JEXMNy8tIZtHjNzWdBiv-1" edge="1">
          <mxGeometry relative="1" as="geometry" />
        </mxCell>
        <mxCell id="JEXMNy8tIZtHjNzWdBiv-78" value="&lt;font style=&quot;font-size: 14px;&quot;&gt;Job check every 2 hour, check delta_from/to_date&lt;/font&gt;&lt;div style=&quot;font-size: 14px;&quot;&gt;&lt;br&gt;&lt;/div&gt;" style="edgeLabel;html=1;align=center;verticalAlign=middle;resizable=0;points=[];" parent="JEXMNy8tIZtHjNzWdBiv-77" vertex="1" connectable="0">
          <mxGeometry x="-0.0325" y="1" relative="1" as="geometry">
            <mxPoint as="offset" />
          </mxGeometry>
        </mxCell>
        <mxCell id="JEXMNy8tIZtHjNzWdBiv-90" style="edgeStyle=orthogonalEdgeStyle;rounded=0;orthogonalLoop=1;jettySize=auto;html=1;entryX=0.75;entryY=0;entryDx=0;entryDy=0;" parent="1" source="JEXMNy8tIZtHjNzWdBiv-88" target="JEXMNy8tIZtHjNzWdBiv-1" edge="1">
          <mxGeometry relative="1" as="geometry">
            <Array as="points">
              <mxPoint x="-300" y="400" />
              <mxPoint x="-143" y="400" />
            </Array>
          </mxGeometry>
        </mxCell>
        <mxCell id="JEXMNy8tIZtHjNzWdBiv-193" value="&lt;font style=&quot;font-size: 19px;&quot;&gt;Trigger every 2 hours&lt;/font&gt;" style="edgeLabel;html=1;align=center;verticalAlign=middle;resizable=0;points=[];" parent="JEXMNy8tIZtHjNzWdBiv-90" vertex="1" connectable="0">
          <mxGeometry x="0.0314" y="2" relative="1" as="geometry">
            <mxPoint as="offset" />
          </mxGeometry>
        </mxCell>
        <mxCell id="JEXMNy8tIZtHjNzWdBiv-88" value="" style="shape=image;verticalLabelPosition=bottom;labelBackgroundColor=default;verticalAlign=top;aspect=fixed;imageAspect=0;image=https://cdn-ssl-devio-img.classmethod.jp/wp-content/uploads/2020/01/amazon-eventbridge.png;" parent="1" vertex="1">
          <mxGeometry x="-380" y="443" width="160" height="84" as="geometry" />
        </mxCell>
        <mxCell id="JEXMNy8tIZtHjNzWdBiv-108" value="T2" style="shape=table;startSize=20;container=1;collapsible=1;childLayout=tableLayout;fixedRows=1;rowLines=0;fontStyle=1;align=center;resizeLast=1;html=1;" parent="1" vertex="1">
          <mxGeometry x="1090" y="220" width="180" height="150" as="geometry" />
        </mxCell>
        <mxCell id="JEXMNy8tIZtHjNzWdBiv-109" value="" style="shape=tableRow;horizontal=0;startSize=0;swimlaneHead=0;swimlaneBody=0;fillColor=none;collapsible=0;dropTarget=0;points=[[0,0.5],[1,0.5]];portConstraint=eastwest;top=0;left=0;right=0;bottom=1;" parent="JEXMNy8tIZtHjNzWdBiv-108" vertex="1">
          <mxGeometry y="20" width="180" height="30" as="geometry" />
        </mxCell>
        <mxCell id="JEXMNy8tIZtHjNzWdBiv-110" value="PK" style="shape=partialRectangle;connectable=0;fillColor=none;top=0;left=0;bottom=0;right=0;fontStyle=1;overflow=hidden;whiteSpace=wrap;html=1;" parent="JEXMNy8tIZtHjNzWdBiv-109" vertex="1">
          <mxGeometry width="30" height="30" as="geometry">
            <mxRectangle width="30" height="30" as="alternateBounds" />
          </mxGeometry>
        </mxCell>
        <mxCell id="JEXMNy8tIZtHjNzWdBiv-111" value="id" style="shape=partialRectangle;connectable=0;fillColor=none;top=0;left=0;bottom=0;right=0;align=left;spacingLeft=6;fontStyle=5;overflow=hidden;whiteSpace=wrap;html=1;" parent="JEXMNy8tIZtHjNzWdBiv-109" vertex="1">
          <mxGeometry x="30" width="150" height="30" as="geometry">
            <mxRectangle width="150" height="30" as="alternateBounds" />
          </mxGeometry>
        </mxCell>
        <mxCell id="JEXMNy8tIZtHjNzWdBiv-112" value="" style="shape=tableRow;horizontal=0;startSize=0;swimlaneHead=0;swimlaneBody=0;fillColor=none;collapsible=0;dropTarget=0;points=[[0,0.5],[1,0.5]];portConstraint=eastwest;top=0;left=0;right=0;bottom=0;" parent="JEXMNy8tIZtHjNzWdBiv-108" vertex="1">
          <mxGeometry y="50" width="180" height="30" as="geometry" />
        </mxCell>
        <mxCell id="JEXMNy8tIZtHjNzWdBiv-113" value="" style="shape=partialRectangle;connectable=0;fillColor=none;top=0;left=0;bottom=0;right=0;editable=1;overflow=hidden;whiteSpace=wrap;html=1;" parent="JEXMNy8tIZtHjNzWdBiv-112" vertex="1">
          <mxGeometry width="30" height="30" as="geometry">
            <mxRectangle width="30" height="30" as="alternateBounds" />
          </mxGeometry>
        </mxCell>
        <mxCell id="JEXMNy8tIZtHjNzWdBiv-114" value="..." style="shape=partialRectangle;connectable=0;fillColor=none;top=0;left=0;bottom=0;right=0;align=left;spacingLeft=6;overflow=hidden;whiteSpace=wrap;html=1;" parent="JEXMNy8tIZtHjNzWdBiv-112" vertex="1">
          <mxGeometry x="30" width="150" height="30" as="geometry">
            <mxRectangle width="150" height="30" as="alternateBounds" />
          </mxGeometry>
        </mxCell>
        <mxCell id="JEXMNy8tIZtHjNzWdBiv-115" value="" style="shape=tableRow;horizontal=0;startSize=0;swimlaneHead=0;swimlaneBody=0;fillColor=none;collapsible=0;dropTarget=0;points=[[0,0.5],[1,0.5]];portConstraint=eastwest;top=0;left=0;right=0;bottom=0;" parent="JEXMNy8tIZtHjNzWdBiv-108" vertex="1">
          <mxGeometry y="80" width="180" height="30" as="geometry" />
        </mxCell>
        <mxCell id="JEXMNy8tIZtHjNzWdBiv-116" value="" style="shape=partialRectangle;connectable=0;fillColor=none;top=0;left=0;bottom=0;right=0;editable=1;overflow=hidden;whiteSpace=wrap;html=1;" parent="JEXMNy8tIZtHjNzWdBiv-115" vertex="1">
          <mxGeometry width="30" height="30" as="geometry">
            <mxRectangle width="30" height="30" as="alternateBounds" />
          </mxGeometry>
        </mxCell>
        <mxCell id="JEXMNy8tIZtHjNzWdBiv-117" value="created_at" style="shape=partialRectangle;connectable=0;fillColor=none;top=0;left=0;bottom=0;right=0;align=left;spacingLeft=6;overflow=hidden;whiteSpace=wrap;html=1;" parent="JEXMNy8tIZtHjNzWdBiv-115" vertex="1">
          <mxGeometry x="30" width="150" height="30" as="geometry">
            <mxRectangle width="150" height="30" as="alternateBounds" />
          </mxGeometry>
        </mxCell>
        <mxCell id="JEXMNy8tIZtHjNzWdBiv-118" value="" style="shape=tableRow;horizontal=0;startSize=0;swimlaneHead=0;swimlaneBody=0;fillColor=none;collapsible=0;dropTarget=0;points=[[0,0.5],[1,0.5]];portConstraint=eastwest;top=0;left=0;right=0;bottom=0;" parent="JEXMNy8tIZtHjNzWdBiv-108" vertex="1">
          <mxGeometry y="110" width="180" height="30" as="geometry" />
        </mxCell>
        <mxCell id="JEXMNy8tIZtHjNzWdBiv-119" value="" style="shape=partialRectangle;connectable=0;fillColor=none;top=0;left=0;bottom=0;right=0;editable=1;overflow=hidden;whiteSpace=wrap;html=1;" parent="JEXMNy8tIZtHjNzWdBiv-118" vertex="1">
          <mxGeometry width="30" height="30" as="geometry">
            <mxRectangle width="30" height="30" as="alternateBounds" />
          </mxGeometry>
        </mxCell>
        <mxCell id="JEXMNy8tIZtHjNzWdBiv-120" value="updated_at" style="shape=partialRectangle;connectable=0;fillColor=none;top=0;left=0;bottom=0;right=0;align=left;spacingLeft=6;overflow=hidden;whiteSpace=wrap;html=1;" parent="JEXMNy8tIZtHjNzWdBiv-118" vertex="1">
          <mxGeometry x="30" width="150" height="30" as="geometry">
            <mxRectangle width="150" height="30" as="alternateBounds" />
          </mxGeometry>
        </mxCell>
        <mxCell id="JEXMNy8tIZtHjNzWdBiv-121" value="T6" style="shape=table;startSize=30;container=1;collapsible=1;childLayout=tableLayout;fixedRows=1;rowLines=0;fontStyle=1;align=center;resizeLast=1;html=1;" parent="1" vertex="1">
          <mxGeometry x="1095" y="950" width="180" height="150" as="geometry" />
        </mxCell>
        <mxCell id="JEXMNy8tIZtHjNzWdBiv-122" value="" style="shape=tableRow;horizontal=0;startSize=0;swimlaneHead=0;swimlaneBody=0;fillColor=none;collapsible=0;dropTarget=0;points=[[0,0.5],[1,0.5]];portConstraint=eastwest;top=0;left=0;right=0;bottom=1;" parent="JEXMNy8tIZtHjNzWdBiv-121" vertex="1">
          <mxGeometry y="30" width="180" height="30" as="geometry" />
        </mxCell>
        <mxCell id="JEXMNy8tIZtHjNzWdBiv-123" value="PK" style="shape=partialRectangle;connectable=0;fillColor=none;top=0;left=0;bottom=0;right=0;fontStyle=1;overflow=hidden;whiteSpace=wrap;html=1;" parent="JEXMNy8tIZtHjNzWdBiv-122" vertex="1">
          <mxGeometry width="30" height="30" as="geometry">
            <mxRectangle width="30" height="30" as="alternateBounds" />
          </mxGeometry>
        </mxCell>
        <mxCell id="JEXMNy8tIZtHjNzWdBiv-124" value="id" style="shape=partialRectangle;connectable=0;fillColor=none;top=0;left=0;bottom=0;right=0;align=left;spacingLeft=6;fontStyle=5;overflow=hidden;whiteSpace=wrap;html=1;" parent="JEXMNy8tIZtHjNzWdBiv-122" vertex="1">
          <mxGeometry x="30" width="150" height="30" as="geometry">
            <mxRectangle width="150" height="30" as="alternateBounds" />
          </mxGeometry>
        </mxCell>
        <mxCell id="JEXMNy8tIZtHjNzWdBiv-125" value="" style="shape=tableRow;horizontal=0;startSize=0;swimlaneHead=0;swimlaneBody=0;fillColor=none;collapsible=0;dropTarget=0;points=[[0,0.5],[1,0.5]];portConstraint=eastwest;top=0;left=0;right=0;bottom=0;" parent="JEXMNy8tIZtHjNzWdBiv-121" vertex="1">
          <mxGeometry y="60" width="180" height="30" as="geometry" />
        </mxCell>
        <mxCell id="JEXMNy8tIZtHjNzWdBiv-126" value="" style="shape=partialRectangle;connectable=0;fillColor=none;top=0;left=0;bottom=0;right=0;editable=1;overflow=hidden;whiteSpace=wrap;html=1;" parent="JEXMNy8tIZtHjNzWdBiv-125" vertex="1">
          <mxGeometry width="30" height="30" as="geometry">
            <mxRectangle width="30" height="30" as="alternateBounds" />
          </mxGeometry>
        </mxCell>
        <mxCell id="JEXMNy8tIZtHjNzWdBiv-127" value="..." style="shape=partialRectangle;connectable=0;fillColor=none;top=0;left=0;bottom=0;right=0;align=left;spacingLeft=6;overflow=hidden;whiteSpace=wrap;html=1;" parent="JEXMNy8tIZtHjNzWdBiv-125" vertex="1">
          <mxGeometry x="30" width="150" height="30" as="geometry">
            <mxRectangle width="150" height="30" as="alternateBounds" />
          </mxGeometry>
        </mxCell>
        <mxCell id="JEXMNy8tIZtHjNzWdBiv-128" value="" style="shape=tableRow;horizontal=0;startSize=0;swimlaneHead=0;swimlaneBody=0;fillColor=none;collapsible=0;dropTarget=0;points=[[0,0.5],[1,0.5]];portConstraint=eastwest;top=0;left=0;right=0;bottom=0;" parent="JEXMNy8tIZtHjNzWdBiv-121" vertex="1">
          <mxGeometry y="90" width="180" height="30" as="geometry" />
        </mxCell>
        <mxCell id="JEXMNy8tIZtHjNzWdBiv-129" value="" style="shape=partialRectangle;connectable=0;fillColor=none;top=0;left=0;bottom=0;right=0;editable=1;overflow=hidden;whiteSpace=wrap;html=1;" parent="JEXMNy8tIZtHjNzWdBiv-128" vertex="1">
          <mxGeometry width="30" height="30" as="geometry">
            <mxRectangle width="30" height="30" as="alternateBounds" />
          </mxGeometry>
        </mxCell>
        <mxCell id="JEXMNy8tIZtHjNzWdBiv-130" value="created_at" style="shape=partialRectangle;connectable=0;fillColor=none;top=0;left=0;bottom=0;right=0;align=left;spacingLeft=6;overflow=hidden;whiteSpace=wrap;html=1;" parent="JEXMNy8tIZtHjNzWdBiv-128" vertex="1">
          <mxGeometry x="30" width="150" height="30" as="geometry">
            <mxRectangle width="150" height="30" as="alternateBounds" />
          </mxGeometry>
        </mxCell>
        <mxCell id="JEXMNy8tIZtHjNzWdBiv-131" value="" style="shape=tableRow;horizontal=0;startSize=0;swimlaneHead=0;swimlaneBody=0;fillColor=none;collapsible=0;dropTarget=0;points=[[0,0.5],[1,0.5]];portConstraint=eastwest;top=0;left=0;right=0;bottom=0;" parent="JEXMNy8tIZtHjNzWdBiv-121" vertex="1">
          <mxGeometry y="120" width="180" height="30" as="geometry" />
        </mxCell>
        <mxCell id="JEXMNy8tIZtHjNzWdBiv-132" value="" style="shape=partialRectangle;connectable=0;fillColor=none;top=0;left=0;bottom=0;right=0;editable=1;overflow=hidden;whiteSpace=wrap;html=1;" parent="JEXMNy8tIZtHjNzWdBiv-131" vertex="1">
          <mxGeometry width="30" height="30" as="geometry">
            <mxRectangle width="30" height="30" as="alternateBounds" />
          </mxGeometry>
        </mxCell>
        <mxCell id="JEXMNy8tIZtHjNzWdBiv-133" value="updated_at" style="shape=partialRectangle;connectable=0;fillColor=none;top=0;left=0;bottom=0;right=0;align=left;spacingLeft=6;overflow=hidden;whiteSpace=wrap;html=1;" parent="JEXMNy8tIZtHjNzWdBiv-131" vertex="1">
          <mxGeometry x="30" width="150" height="30" as="geometry">
            <mxRectangle width="150" height="30" as="alternateBounds" />
          </mxGeometry>
        </mxCell>
        <mxCell id="JEXMNy8tIZtHjNzWdBiv-134" value="amc" style="shape=table;startSize=20;container=1;collapsible=1;childLayout=tableLayout;fixedRows=1;rowLines=0;fontStyle=1;align=center;resizeLast=1;html=1;" parent="1" vertex="1">
          <mxGeometry x="1090" y="10" width="180" height="150" as="geometry" />
        </mxCell>
        <mxCell id="JEXMNy8tIZtHjNzWdBiv-135" value="" style="shape=tableRow;horizontal=0;startSize=0;swimlaneHead=0;swimlaneBody=0;fillColor=none;collapsible=0;dropTarget=0;points=[[0,0.5],[1,0.5]];portConstraint=eastwest;top=0;left=0;right=0;bottom=1;" parent="JEXMNy8tIZtHjNzWdBiv-134" vertex="1">
          <mxGeometry y="20" width="180" height="30" as="geometry" />
        </mxCell>
        <mxCell id="JEXMNy8tIZtHjNzWdBiv-136" value="PK" style="shape=partialRectangle;connectable=0;fillColor=none;top=0;left=0;bottom=0;right=0;fontStyle=1;overflow=hidden;whiteSpace=wrap;html=1;" parent="JEXMNy8tIZtHjNzWdBiv-135" vertex="1">
          <mxGeometry width="30" height="30" as="geometry">
            <mxRectangle width="30" height="30" as="alternateBounds" />
          </mxGeometry>
        </mxCell>
        <mxCell id="JEXMNy8tIZtHjNzWdBiv-137" value="amc_id" style="shape=partialRectangle;connectable=0;fillColor=none;top=0;left=0;bottom=0;right=0;align=left;spacingLeft=6;fontStyle=5;overflow=hidden;whiteSpace=wrap;html=1;" parent="JEXMNy8tIZtHjNzWdBiv-135" vertex="1">
          <mxGeometry x="30" width="150" height="30" as="geometry">
            <mxRectangle width="150" height="30" as="alternateBounds" />
          </mxGeometry>
        </mxCell>
        <mxCell id="JEXMNy8tIZtHjNzWdBiv-138" value="" style="shape=tableRow;horizontal=0;startSize=0;swimlaneHead=0;swimlaneBody=0;fillColor=none;collapsible=0;dropTarget=0;points=[[0,0.5],[1,0.5]];portConstraint=eastwest;top=0;left=0;right=0;bottom=0;" parent="JEXMNy8tIZtHjNzWdBiv-134" vertex="1">
          <mxGeometry y="50" width="180" height="30" as="geometry" />
        </mxCell>
        <mxCell id="JEXMNy8tIZtHjNzWdBiv-139" value="" style="shape=partialRectangle;connectable=0;fillColor=none;top=0;left=0;bottom=0;right=0;editable=1;overflow=hidden;whiteSpace=wrap;html=1;" parent="JEXMNy8tIZtHjNzWdBiv-138" vertex="1">
          <mxGeometry width="30" height="30" as="geometry">
            <mxRectangle width="30" height="30" as="alternateBounds" />
          </mxGeometry>
        </mxCell>
        <mxCell id="JEXMNy8tIZtHjNzWdBiv-140" value="..." style="shape=partialRectangle;connectable=0;fillColor=none;top=0;left=0;bottom=0;right=0;align=left;spacingLeft=6;overflow=hidden;whiteSpace=wrap;html=1;" parent="JEXMNy8tIZtHjNzWdBiv-138" vertex="1">
          <mxGeometry x="30" width="150" height="30" as="geometry">
            <mxRectangle width="150" height="30" as="alternateBounds" />
          </mxGeometry>
        </mxCell>
        <mxCell id="JEXMNy8tIZtHjNzWdBiv-141" value="" style="shape=tableRow;horizontal=0;startSize=0;swimlaneHead=0;swimlaneBody=0;fillColor=none;collapsible=0;dropTarget=0;points=[[0,0.5],[1,0.5]];portConstraint=eastwest;top=0;left=0;right=0;bottom=0;" parent="JEXMNy8tIZtHjNzWdBiv-134" vertex="1">
          <mxGeometry y="80" width="180" height="30" as="geometry" />
        </mxCell>
        <mxCell id="JEXMNy8tIZtHjNzWdBiv-142" value="" style="shape=partialRectangle;connectable=0;fillColor=none;top=0;left=0;bottom=0;right=0;editable=1;overflow=hidden;whiteSpace=wrap;html=1;" parent="JEXMNy8tIZtHjNzWdBiv-141" vertex="1">
          <mxGeometry width="30" height="30" as="geometry">
            <mxRectangle width="30" height="30" as="alternateBounds" />
          </mxGeometry>
        </mxCell>
        <mxCell id="JEXMNy8tIZtHjNzWdBiv-143" value="created_at" style="shape=partialRectangle;connectable=0;fillColor=none;top=0;left=0;bottom=0;right=0;align=left;spacingLeft=6;overflow=hidden;whiteSpace=wrap;html=1;" parent="JEXMNy8tIZtHjNzWdBiv-141" vertex="1">
          <mxGeometry x="30" width="150" height="30" as="geometry">
            <mxRectangle width="150" height="30" as="alternateBounds" />
          </mxGeometry>
        </mxCell>
        <mxCell id="JEXMNy8tIZtHjNzWdBiv-144" value="" style="shape=tableRow;horizontal=0;startSize=0;swimlaneHead=0;swimlaneBody=0;fillColor=none;collapsible=0;dropTarget=0;points=[[0,0.5],[1,0.5]];portConstraint=eastwest;top=0;left=0;right=0;bottom=0;" parent="JEXMNy8tIZtHjNzWdBiv-134" vertex="1">
          <mxGeometry y="110" width="180" height="30" as="geometry" />
        </mxCell>
        <mxCell id="JEXMNy8tIZtHjNzWdBiv-145" value="" style="shape=partialRectangle;connectable=0;fillColor=none;top=0;left=0;bottom=0;right=0;editable=1;overflow=hidden;whiteSpace=wrap;html=1;" parent="JEXMNy8tIZtHjNzWdBiv-144" vertex="1">
          <mxGeometry width="30" height="30" as="geometry">
            <mxRectangle width="30" height="30" as="alternateBounds" />
          </mxGeometry>
        </mxCell>
        <mxCell id="JEXMNy8tIZtHjNzWdBiv-146" value="updated_at" style="shape=partialRectangle;connectable=0;fillColor=none;top=0;left=0;bottom=0;right=0;align=left;spacingLeft=6;overflow=hidden;whiteSpace=wrap;html=1;" parent="JEXMNy8tIZtHjNzWdBiv-144" vertex="1">
          <mxGeometry x="30" width="150" height="30" as="geometry">
            <mxRectangle width="150" height="30" as="alternateBounds" />
          </mxGeometry>
        </mxCell>
        <mxCell id="JEXMNy8tIZtHjNzWdBiv-147" value="T3" style="shape=table;startSize=20;container=1;collapsible=1;childLayout=tableLayout;fixedRows=1;rowLines=0;fontStyle=1;align=center;resizeLast=1;html=1;" parent="1" vertex="1">
          <mxGeometry x="1090" y="410" width="180" height="150" as="geometry" />
        </mxCell>
        <mxCell id="JEXMNy8tIZtHjNzWdBiv-148" value="" style="shape=tableRow;horizontal=0;startSize=0;swimlaneHead=0;swimlaneBody=0;fillColor=none;collapsible=0;dropTarget=0;points=[[0,0.5],[1,0.5]];portConstraint=eastwest;top=0;left=0;right=0;bottom=1;" parent="JEXMNy8tIZtHjNzWdBiv-147" vertex="1">
          <mxGeometry y="20" width="180" height="30" as="geometry" />
        </mxCell>
        <mxCell id="JEXMNy8tIZtHjNzWdBiv-149" value="PK" style="shape=partialRectangle;connectable=0;fillColor=none;top=0;left=0;bottom=0;right=0;fontStyle=1;overflow=hidden;whiteSpace=wrap;html=1;" parent="JEXMNy8tIZtHjNzWdBiv-148" vertex="1">
          <mxGeometry width="30" height="30" as="geometry">
            <mxRectangle width="30" height="30" as="alternateBounds" />
          </mxGeometry>
        </mxCell>
        <mxCell id="JEXMNy8tIZtHjNzWdBiv-150" value="id" style="shape=partialRectangle;connectable=0;fillColor=none;top=0;left=0;bottom=0;right=0;align=left;spacingLeft=6;fontStyle=5;overflow=hidden;whiteSpace=wrap;html=1;" parent="JEXMNy8tIZtHjNzWdBiv-148" vertex="1">
          <mxGeometry x="30" width="150" height="30" as="geometry">
            <mxRectangle width="150" height="30" as="alternateBounds" />
          </mxGeometry>
        </mxCell>
        <mxCell id="JEXMNy8tIZtHjNzWdBiv-151" value="" style="shape=tableRow;horizontal=0;startSize=0;swimlaneHead=0;swimlaneBody=0;fillColor=none;collapsible=0;dropTarget=0;points=[[0,0.5],[1,0.5]];portConstraint=eastwest;top=0;left=0;right=0;bottom=0;" parent="JEXMNy8tIZtHjNzWdBiv-147" vertex="1">
          <mxGeometry y="50" width="180" height="30" as="geometry" />
        </mxCell>
        <mxCell id="JEXMNy8tIZtHjNzWdBiv-152" value="" style="shape=partialRectangle;connectable=0;fillColor=none;top=0;left=0;bottom=0;right=0;editable=1;overflow=hidden;whiteSpace=wrap;html=1;" parent="JEXMNy8tIZtHjNzWdBiv-151" vertex="1">
          <mxGeometry width="30" height="30" as="geometry">
            <mxRectangle width="30" height="30" as="alternateBounds" />
          </mxGeometry>
        </mxCell>
        <mxCell id="JEXMNy8tIZtHjNzWdBiv-153" value="..." style="shape=partialRectangle;connectable=0;fillColor=none;top=0;left=0;bottom=0;right=0;align=left;spacingLeft=6;overflow=hidden;whiteSpace=wrap;html=1;" parent="JEXMNy8tIZtHjNzWdBiv-151" vertex="1">
          <mxGeometry x="30" width="150" height="30" as="geometry">
            <mxRectangle width="150" height="30" as="alternateBounds" />
          </mxGeometry>
        </mxCell>
        <mxCell id="JEXMNy8tIZtHjNzWdBiv-154" value="" style="shape=tableRow;horizontal=0;startSize=0;swimlaneHead=0;swimlaneBody=0;fillColor=none;collapsible=0;dropTarget=0;points=[[0,0.5],[1,0.5]];portConstraint=eastwest;top=0;left=0;right=0;bottom=0;" parent="JEXMNy8tIZtHjNzWdBiv-147" vertex="1">
          <mxGeometry y="80" width="180" height="30" as="geometry" />
        </mxCell>
        <mxCell id="JEXMNy8tIZtHjNzWdBiv-155" value="" style="shape=partialRectangle;connectable=0;fillColor=none;top=0;left=0;bottom=0;right=0;editable=1;overflow=hidden;whiteSpace=wrap;html=1;" parent="JEXMNy8tIZtHjNzWdBiv-154" vertex="1">
          <mxGeometry width="30" height="30" as="geometry">
            <mxRectangle width="30" height="30" as="alternateBounds" />
          </mxGeometry>
        </mxCell>
        <mxCell id="JEXMNy8tIZtHjNzWdBiv-156" value="created_at" style="shape=partialRectangle;connectable=0;fillColor=none;top=0;left=0;bottom=0;right=0;align=left;spacingLeft=6;overflow=hidden;whiteSpace=wrap;html=1;" parent="JEXMNy8tIZtHjNzWdBiv-154" vertex="1">
          <mxGeometry x="30" width="150" height="30" as="geometry">
            <mxRectangle width="150" height="30" as="alternateBounds" />
          </mxGeometry>
        </mxCell>
        <mxCell id="JEXMNy8tIZtHjNzWdBiv-157" value="" style="shape=tableRow;horizontal=0;startSize=0;swimlaneHead=0;swimlaneBody=0;fillColor=none;collapsible=0;dropTarget=0;points=[[0,0.5],[1,0.5]];portConstraint=eastwest;top=0;left=0;right=0;bottom=0;" parent="JEXMNy8tIZtHjNzWdBiv-147" vertex="1">
          <mxGeometry y="110" width="180" height="30" as="geometry" />
        </mxCell>
        <mxCell id="JEXMNy8tIZtHjNzWdBiv-158" value="" style="shape=partialRectangle;connectable=0;fillColor=none;top=0;left=0;bottom=0;right=0;editable=1;overflow=hidden;whiteSpace=wrap;html=1;" parent="JEXMNy8tIZtHjNzWdBiv-157" vertex="1">
          <mxGeometry width="30" height="30" as="geometry">
            <mxRectangle width="30" height="30" as="alternateBounds" />
          </mxGeometry>
        </mxCell>
        <mxCell id="JEXMNy8tIZtHjNzWdBiv-159" value="updated_at" style="shape=partialRectangle;connectable=0;fillColor=none;top=0;left=0;bottom=0;right=0;align=left;spacingLeft=6;overflow=hidden;whiteSpace=wrap;html=1;" parent="JEXMNy8tIZtHjNzWdBiv-157" vertex="1">
          <mxGeometry x="30" width="150" height="30" as="geometry">
            <mxRectangle width="150" height="30" as="alternateBounds" />
          </mxGeometry>
        </mxCell>
        <mxCell id="JEXMNy8tIZtHjNzWdBiv-160" value="T4" style="shape=table;startSize=20;container=1;collapsible=1;childLayout=tableLayout;fixedRows=1;rowLines=0;fontStyle=1;align=center;resizeLast=1;html=1;" parent="1" vertex="1">
          <mxGeometry x="1090" y="590" width="180" height="150" as="geometry" />
        </mxCell>
        <mxCell id="JEXMNy8tIZtHjNzWdBiv-161" value="" style="shape=tableRow;horizontal=0;startSize=0;swimlaneHead=0;swimlaneBody=0;fillColor=none;collapsible=0;dropTarget=0;points=[[0,0.5],[1,0.5]];portConstraint=eastwest;top=0;left=0;right=0;bottom=1;" parent="JEXMNy8tIZtHjNzWdBiv-160" vertex="1">
          <mxGeometry y="20" width="180" height="30" as="geometry" />
        </mxCell>
        <mxCell id="JEXMNy8tIZtHjNzWdBiv-162" value="PK" style="shape=partialRectangle;connectable=0;fillColor=none;top=0;left=0;bottom=0;right=0;fontStyle=1;overflow=hidden;whiteSpace=wrap;html=1;" parent="JEXMNy8tIZtHjNzWdBiv-161" vertex="1">
          <mxGeometry width="30" height="30" as="geometry">
            <mxRectangle width="30" height="30" as="alternateBounds" />
          </mxGeometry>
        </mxCell>
        <mxCell id="JEXMNy8tIZtHjNzWdBiv-163" value="id" style="shape=partialRectangle;connectable=0;fillColor=none;top=0;left=0;bottom=0;right=0;align=left;spacingLeft=6;fontStyle=5;overflow=hidden;whiteSpace=wrap;html=1;" parent="JEXMNy8tIZtHjNzWdBiv-161" vertex="1">
          <mxGeometry x="30" width="150" height="30" as="geometry">
            <mxRectangle width="150" height="30" as="alternateBounds" />
          </mxGeometry>
        </mxCell>
        <mxCell id="JEXMNy8tIZtHjNzWdBiv-164" value="" style="shape=tableRow;horizontal=0;startSize=0;swimlaneHead=0;swimlaneBody=0;fillColor=none;collapsible=0;dropTarget=0;points=[[0,0.5],[1,0.5]];portConstraint=eastwest;top=0;left=0;right=0;bottom=0;" parent="JEXMNy8tIZtHjNzWdBiv-160" vertex="1">
          <mxGeometry y="50" width="180" height="30" as="geometry" />
        </mxCell>
        <mxCell id="JEXMNy8tIZtHjNzWdBiv-165" value="" style="shape=partialRectangle;connectable=0;fillColor=none;top=0;left=0;bottom=0;right=0;editable=1;overflow=hidden;whiteSpace=wrap;html=1;" parent="JEXMNy8tIZtHjNzWdBiv-164" vertex="1">
          <mxGeometry width="30" height="30" as="geometry">
            <mxRectangle width="30" height="30" as="alternateBounds" />
          </mxGeometry>
        </mxCell>
        <mxCell id="JEXMNy8tIZtHjNzWdBiv-166" value="..." style="shape=partialRectangle;connectable=0;fillColor=none;top=0;left=0;bottom=0;right=0;align=left;spacingLeft=6;overflow=hidden;whiteSpace=wrap;html=1;" parent="JEXMNy8tIZtHjNzWdBiv-164" vertex="1">
          <mxGeometry x="30" width="150" height="30" as="geometry">
            <mxRectangle width="150" height="30" as="alternateBounds" />
          </mxGeometry>
        </mxCell>
        <mxCell id="JEXMNy8tIZtHjNzWdBiv-167" value="" style="shape=tableRow;horizontal=0;startSize=0;swimlaneHead=0;swimlaneBody=0;fillColor=none;collapsible=0;dropTarget=0;points=[[0,0.5],[1,0.5]];portConstraint=eastwest;top=0;left=0;right=0;bottom=0;" parent="JEXMNy8tIZtHjNzWdBiv-160" vertex="1">
          <mxGeometry y="80" width="180" height="30" as="geometry" />
        </mxCell>
        <mxCell id="JEXMNy8tIZtHjNzWdBiv-168" value="" style="shape=partialRectangle;connectable=0;fillColor=none;top=0;left=0;bottom=0;right=0;editable=1;overflow=hidden;whiteSpace=wrap;html=1;" parent="JEXMNy8tIZtHjNzWdBiv-167" vertex="1">
          <mxGeometry width="30" height="30" as="geometry">
            <mxRectangle width="30" height="30" as="alternateBounds" />
          </mxGeometry>
        </mxCell>
        <mxCell id="JEXMNy8tIZtHjNzWdBiv-169" value="created_at" style="shape=partialRectangle;connectable=0;fillColor=none;top=0;left=0;bottom=0;right=0;align=left;spacingLeft=6;overflow=hidden;whiteSpace=wrap;html=1;" parent="JEXMNy8tIZtHjNzWdBiv-167" vertex="1">
          <mxGeometry x="30" width="150" height="30" as="geometry">
            <mxRectangle width="150" height="30" as="alternateBounds" />
          </mxGeometry>
        </mxCell>
        <mxCell id="JEXMNy8tIZtHjNzWdBiv-170" value="" style="shape=tableRow;horizontal=0;startSize=0;swimlaneHead=0;swimlaneBody=0;fillColor=none;collapsible=0;dropTarget=0;points=[[0,0.5],[1,0.5]];portConstraint=eastwest;top=0;left=0;right=0;bottom=0;" parent="JEXMNy8tIZtHjNzWdBiv-160" vertex="1">
          <mxGeometry y="110" width="180" height="30" as="geometry" />
        </mxCell>
        <mxCell id="JEXMNy8tIZtHjNzWdBiv-171" value="" style="shape=partialRectangle;connectable=0;fillColor=none;top=0;left=0;bottom=0;right=0;editable=1;overflow=hidden;whiteSpace=wrap;html=1;" parent="JEXMNy8tIZtHjNzWdBiv-170" vertex="1">
          <mxGeometry width="30" height="30" as="geometry">
            <mxRectangle width="30" height="30" as="alternateBounds" />
          </mxGeometry>
        </mxCell>
        <mxCell id="JEXMNy8tIZtHjNzWdBiv-172" value="updated_at" style="shape=partialRectangle;connectable=0;fillColor=none;top=0;left=0;bottom=0;right=0;align=left;spacingLeft=6;overflow=hidden;whiteSpace=wrap;html=1;" parent="JEXMNy8tIZtHjNzWdBiv-170" vertex="1">
          <mxGeometry x="30" width="150" height="30" as="geometry">
            <mxRectangle width="150" height="30" as="alternateBounds" />
          </mxGeometry>
        </mxCell>
        <mxCell id="JEXMNy8tIZtHjNzWdBiv-173" value="T5" style="shape=table;startSize=20;container=1;collapsible=1;childLayout=tableLayout;fixedRows=1;rowLines=0;fontStyle=1;align=center;resizeLast=1;html=1;" parent="1" vertex="1">
          <mxGeometry x="1095" y="770" width="180" height="150" as="geometry" />
        </mxCell>
        <mxCell id="JEXMNy8tIZtHjNzWdBiv-174" value="" style="shape=tableRow;horizontal=0;startSize=0;swimlaneHead=0;swimlaneBody=0;fillColor=none;collapsible=0;dropTarget=0;points=[[0,0.5],[1,0.5]];portConstraint=eastwest;top=0;left=0;right=0;bottom=1;" parent="JEXMNy8tIZtHjNzWdBiv-173" vertex="1">
          <mxGeometry y="20" width="180" height="30" as="geometry" />
        </mxCell>
        <mxCell id="JEXMNy8tIZtHjNzWdBiv-175" value="PK" style="shape=partialRectangle;connectable=0;fillColor=none;top=0;left=0;bottom=0;right=0;fontStyle=1;overflow=hidden;whiteSpace=wrap;html=1;" parent="JEXMNy8tIZtHjNzWdBiv-174" vertex="1">
          <mxGeometry width="30" height="30" as="geometry">
            <mxRectangle width="30" height="30" as="alternateBounds" />
          </mxGeometry>
        </mxCell>
        <mxCell id="JEXMNy8tIZtHjNzWdBiv-176" value="id" style="shape=partialRectangle;connectable=0;fillColor=none;top=0;left=0;bottom=0;right=0;align=left;spacingLeft=6;fontStyle=5;overflow=hidden;whiteSpace=wrap;html=1;" parent="JEXMNy8tIZtHjNzWdBiv-174" vertex="1">
          <mxGeometry x="30" width="150" height="30" as="geometry">
            <mxRectangle width="150" height="30" as="alternateBounds" />
          </mxGeometry>
        </mxCell>
        <mxCell id="JEXMNy8tIZtHjNzWdBiv-177" value="" style="shape=tableRow;horizontal=0;startSize=0;swimlaneHead=0;swimlaneBody=0;fillColor=none;collapsible=0;dropTarget=0;points=[[0,0.5],[1,0.5]];portConstraint=eastwest;top=0;left=0;right=0;bottom=0;" parent="JEXMNy8tIZtHjNzWdBiv-173" vertex="1">
          <mxGeometry y="50" width="180" height="30" as="geometry" />
        </mxCell>
        <mxCell id="JEXMNy8tIZtHjNzWdBiv-178" value="" style="shape=partialRectangle;connectable=0;fillColor=none;top=0;left=0;bottom=0;right=0;editable=1;overflow=hidden;whiteSpace=wrap;html=1;" parent="JEXMNy8tIZtHjNzWdBiv-177" vertex="1">
          <mxGeometry width="30" height="30" as="geometry">
            <mxRectangle width="30" height="30" as="alternateBounds" />
          </mxGeometry>
        </mxCell>
        <mxCell id="JEXMNy8tIZtHjNzWdBiv-179" value="..." style="shape=partialRectangle;connectable=0;fillColor=none;top=0;left=0;bottom=0;right=0;align=left;spacingLeft=6;overflow=hidden;whiteSpace=wrap;html=1;" parent="JEXMNy8tIZtHjNzWdBiv-177" vertex="1">
          <mxGeometry x="30" width="150" height="30" as="geometry">
            <mxRectangle width="150" height="30" as="alternateBounds" />
          </mxGeometry>
        </mxCell>
        <mxCell id="JEXMNy8tIZtHjNzWdBiv-180" value="" style="shape=tableRow;horizontal=0;startSize=0;swimlaneHead=0;swimlaneBody=0;fillColor=none;collapsible=0;dropTarget=0;points=[[0,0.5],[1,0.5]];portConstraint=eastwest;top=0;left=0;right=0;bottom=0;" parent="JEXMNy8tIZtHjNzWdBiv-173" vertex="1">
          <mxGeometry y="80" width="180" height="30" as="geometry" />
        </mxCell>
        <mxCell id="JEXMNy8tIZtHjNzWdBiv-181" value="" style="shape=partialRectangle;connectable=0;fillColor=none;top=0;left=0;bottom=0;right=0;editable=1;overflow=hidden;whiteSpace=wrap;html=1;" parent="JEXMNy8tIZtHjNzWdBiv-180" vertex="1">
          <mxGeometry width="30" height="30" as="geometry">
            <mxRectangle width="30" height="30" as="alternateBounds" />
          </mxGeometry>
        </mxCell>
        <mxCell id="JEXMNy8tIZtHjNzWdBiv-182" value="created_at" style="shape=partialRectangle;connectable=0;fillColor=none;top=0;left=0;bottom=0;right=0;align=left;spacingLeft=6;overflow=hidden;whiteSpace=wrap;html=1;" parent="JEXMNy8tIZtHjNzWdBiv-180" vertex="1">
          <mxGeometry x="30" width="150" height="30" as="geometry">
            <mxRectangle width="150" height="30" as="alternateBounds" />
          </mxGeometry>
        </mxCell>
        <mxCell id="JEXMNy8tIZtHjNzWdBiv-183" value="" style="shape=tableRow;horizontal=0;startSize=0;swimlaneHead=0;swimlaneBody=0;fillColor=none;collapsible=0;dropTarget=0;points=[[0,0.5],[1,0.5]];portConstraint=eastwest;top=0;left=0;right=0;bottom=0;" parent="JEXMNy8tIZtHjNzWdBiv-173" vertex="1">
          <mxGeometry y="110" width="180" height="30" as="geometry" />
        </mxCell>
        <mxCell id="JEXMNy8tIZtHjNzWdBiv-184" value="" style="shape=partialRectangle;connectable=0;fillColor=none;top=0;left=0;bottom=0;right=0;editable=1;overflow=hidden;whiteSpace=wrap;html=1;" parent="JEXMNy8tIZtHjNzWdBiv-183" vertex="1">
          <mxGeometry width="30" height="30" as="geometry">
            <mxRectangle width="30" height="30" as="alternateBounds" />
          </mxGeometry>
        </mxCell>
        <mxCell id="JEXMNy8tIZtHjNzWdBiv-185" value="updated_at" style="shape=partialRectangle;connectable=0;fillColor=none;top=0;left=0;bottom=0;right=0;align=left;spacingLeft=6;overflow=hidden;whiteSpace=wrap;html=1;" parent="JEXMNy8tIZtHjNzWdBiv-183" vertex="1">
          <mxGeometry x="30" width="150" height="30" as="geometry">
            <mxRectangle width="150" height="30" as="alternateBounds" />
          </mxGeometry>
        </mxCell>
        <mxCell id="JEXMNy8tIZtHjNzWdBiv-190" style="edgeStyle=orthogonalEdgeStyle;rounded=0;orthogonalLoop=1;jettySize=auto;html=1;entryX=0.011;entryY=-0.008;entryDx=0;entryDy=0;entryPerimeter=0;" parent="1" source="JEXMNy8tIZtHjNzWdBiv-5" target="JEXMNy8tIZtHjNzWdBiv-170" edge="1">
          <mxGeometry relative="1" as="geometry">
            <Array as="points">
              <mxPoint x="703" y="660" />
              <mxPoint x="1092" y="660" />
            </Array>
          </mxGeometry>
        </mxCell>
        <mxCell id="JEXMNy8tIZtHjNzWdBiv-191" style="edgeStyle=orthogonalEdgeStyle;rounded=0;orthogonalLoop=1;jettySize=auto;html=1;entryX=-0.003;entryY=-0.05;entryDx=0;entryDy=0;entryPerimeter=0;" parent="1" source="JEXMNy8tIZtHjNzWdBiv-5" target="JEXMNy8tIZtHjNzWdBiv-180" edge="1">
          <mxGeometry relative="1" as="geometry" />
        </mxCell>
      </root>
    </mxGraphModel>
  </diagram>
</mxfile>
